<?xml version="1.0" encoding="UTF-8" standalone="no"?>
<!-- Created with Inkscape (http://www.inkscape.org/) -->

<svg
    width="1024"
    height="1024"
    viewBox="0 0 1024 1024"
    id="svg"
    xml:space="preserve"
    inkscape:version="1.4.1 (93de688d07, 2025-03-30)"
    sodipodi:docname="Kanji-Uwasaki.svg"
    xmlns:inkscape="http://www.inkscape.org/namespaces/inkscape"
    xmlns:sodipodi="http://sodipodi.sourceforge.net/DTD/sodipodi-0.dtd"
    xmlns="http://www.w3.org/2000/svg"
    xmlns:svg="http://www.w3.org/2000/svg"
    xmlns:rdf="http://www.w3.org/1999/02/22-rdf-syntax-ns#"
    xmlns:cc="http://creativecommons.org/ns#"
    xmlns:dc="http://purl.org/dc/elements/1.1/"
>
    <title id="title">Kanji-Uwasaki</title>
    <defs id="defs" />
    <path
        id="path1"
        style="display:inline;opacity:1;fill:#cc7a29;fill-opacity:1"
        d="M 160,0 0,320 H 128 L 0,576 H 448 L 320,320 H 448 L 288,0 Z m 64,64 96,192 H 128 Z m 0,256 96,192 H 128 Z"
        inkscape:label="path1" />
    <path
        id="path2"
        style="display:inline;opacity:1;fill:#333333;fill-opacity:1"
        d="m 176,576 v 448 h 96 V 576 Z"
        inkscape:label="path2" />
    <path
      id="path3"
        style="display:inline;opacity:1;fill:#333333;fill-opacity:1"
        d="M 32,704 0,768 v 256 H 96 V 768 l 32,-64 z"
        inkscape:label="path3" />
    <path
        id="path4"
        style="display:inline;opacity:1;fill:#333333;fill-opacity:1"
        d="m 320,704 32,64 v 256 h 96 V 768 l -32,-64 z"
        inkscape:label="path4" />
    <path
        id="path5"
        style="display:inline;opacity:1;fill:#333333;fill-opacity:1"
        d="M 720,0 V 256 H 512 v 64 h 208 v 160 h 96 V 320 h 208 V 256 H 816 v -96 h 208 V 96 H 816 V 0 Z"
        inkscape:label="path5" />
    <path
        id="path6"
        style="display:inline;opacity:1;fill:#333333;fill-opacity:1"
        d="m 576,352 -64,128 h 96 l 64,-128 z"
        inkscape:label="path6" />
    <path
        id="path7"
        style="display:inline;opacity:1;fill:#333333;fill-opacity:1"
        d="m 864,352 64,128 h 96 L 960,352 Z"
        inkscape:label="path7" />
    <path
        id="path8"
        style="display:inline;opacity:1;fill:#333333;fill-opacity:1"
        d="m 512,512 v 64 H 928 V 704 H 512 v 320 h 512 V 832 H 928 V 960 H 608 V 768 h 416 V 512 Z"
        inkscape:label="path8" />
    <metadata id="metadata">
        <rdf:RDF>
            <cc:Work rdf:about="">
                <dc:title>Kanji-Uwasaki</dc:title>
                <dc:date>2025/01/03</dc:date>
                <dc:creator><cc:Agent><dc:title>Uwasaki TSUDE</dc:title></cc:Agent></dc:creator>
            </cc:Work>
        </rdf:RDF>
    </metadata>
</svg>
